# xmcd CD database file
#
# Track frame offsets:
#	150
#	24770
#	47032
#	66415
#	88542
#	110455
#	133780
#	152437
#	176832
#	199045
#	218855
#	245042
#	266822
#	286267
#	305380
#
# Disc length: 4381 seconds
#
# Revision: 2
# Processed by: cddbd v1.5.2PL0 Copyright (c) Steve Scherf et al.
# Submitted via: jetAudio 7
#
DISCID=d7111b0f
DTITLE=Every Little Thing - Every Best Single 2
DYEAR=2003
DGENRE=Pop
TTITLE0=Pray
TTITLE1=sure
TTITLE2=Rescue me
TTITLE3=愛のカケラ～Steppin’Hard Enough Mix～
TTITLE4=fragile
TTITLE5=Graceful World
TTITLE6=jump
TTITLE7=キヲク
TTITLE8=ささやかな祈り
TTITLE9=UNSPEAKABLE
TTITLE10=nostalgia
TTITLE11=Grip!
TTITLE12=ファンダメンタル・ラブ
TTITLE13=For the moment (Acoustic version)
TTITLE14=出逢った頃のように(Acoustic version)
EXTD=YEAR: 2003
EXTT0=
EXTT1=
EXTT2=
EXTT3=
EXTT4=
EXTT5=
EXTT6=
EXTT7=
EXTT8=
EXTT9=
EXTT10=
EXTT11=
EXTT12=
EXTT13=
EXTT14=
PLAYORDER=
